<?xml version="1.0" encoding="UTF-8" standalone="no"?>
<!DOCTYPE svg PUBLIC "-//W3C//DTD SVG 1.1//EN"
 "http://www.w3.org/Graphics/SVG/1.1/DTD/svg11.dtd">
<!-- Generated by graphviz version 14.0.1 (20251006.0113)
 -->
<!-- Title: circuit_2 Pages: 1 -->
<svg width="259pt" height="134pt"
 viewBox="0.00 0.00 259.00 134.00" xmlns="http://www.w3.org/2000/svg" xmlns:xlink="http://www.w3.org/1999/xlink">
<g id="graph0" class="graph" transform="scale(1 1) rotate(0) translate(4 130)">
<title>circuit_2</title>
<polygon fill="white" stroke="none" points="-4,4 -4,-130 254.88,-130 254.88,4 -4,4"/>
<g id="clust1" class="cluster">
<title>cluster_level_0</title>
</g>
<g id="clust2" class="cluster">
<title>cluster_level_1</title>
</g>
<g id="clust3" class="cluster">
<title>cluster_level_2</title>
</g>
<g id="clust4" class="cluster">
<title>cluster_level_3</title>
</g>
<!-- n1 -->
<g id="node1" class="node">
<title>n1</title>
<polygon fill="white" stroke="black" stroke-width="1.5" points="16,-96 48.4,-81.6 48.4,-110.4 16,-96"/>
<text xml:space="preserve" text-anchor="middle" x="37.6" y="-90.97" font-family="Helvetica,sans-Serif" font-size="12.00">A</text>
</g>
<!-- n4 -->
<g id="node4" class="node">
<title>n4</title>
<polygon fill="none" stroke="none" stroke-width="0" points="113.44,-75.6 83.2,-75.6 83.2,-50.4 113.44,-50.4 113.44,-75.6"/>
<image xlink:href="/Users/madhusudhan/Desktop/Static-SignOff-Simulator/out/AND3.png" width="30.24px" height="25.2px" preserveAspectRatio="xMinYMin meet" x="83.2" y="-75.6"/>
<text xml:space="preserve" text-anchor="middle" x="98.32" y="-59.12" font-family="Helvetica,sans-Serif" font-size="10.00">D</text>
</g>
<!-- n1&#45;&gt;n4 -->
<g id="edge1" class="edge">
<title>n1&#45;&gt;n4</title>
<path fill="none" stroke="black" stroke-width="1.2" d="M49.1,-90.1C58.73,-84.69 73.06,-76.63 83.6,-70.71"/>
</g>
<!-- n2 -->
<g id="node2" class="node">
<title>n2</title>
<polygon fill="white" stroke="black" stroke-width="1.5" points="16,-63 48.4,-48.6 48.4,-77.4 16,-63"/>
<text xml:space="preserve" text-anchor="middle" x="37.6" y="-57.98" font-family="Helvetica,sans-Serif" font-size="12.00">B</text>
</g>
<!-- n2&#45;&gt;n4 -->
<g id="edge2" class="edge">
<title>n2&#45;&gt;n4</title>
<path fill="none" stroke="black" stroke-width="1.2" d="M49.1,-63C58.73,-63 73.06,-63 83.6,-63"/>
</g>
<!-- n3 -->
<g id="node3" class="node">
<title>n3</title>
<polygon fill="white" stroke="black" stroke-width="1.5" points="16,-30 48.4,-15.6 48.4,-44.4 16,-30"/>
<text xml:space="preserve" text-anchor="middle" x="37.6" y="-24.98" font-family="Helvetica,sans-Serif" font-size="12.00">C</text>
</g>
<!-- n5 -->
<g id="node5" class="node">
<title>n5</title>
<polygon fill="none" stroke="none" stroke-width="0" points="167.68,-59.6 137.44,-59.6 137.44,-34.4 167.68,-34.4 167.68,-59.6"/>
<image xlink:href="/Users/madhusudhan/Desktop/Static-SignOff-Simulator/out/AND3.png" width="30.24px" height="25.2px" preserveAspectRatio="xMinYMin meet" x="137.44" y="-59.6"/>
<text xml:space="preserve" text-anchor="middle" x="152.56" y="-43.12" font-family="Helvetica,sans-Serif" font-size="10.00">E</text>
</g>
<!-- n3&#45;&gt;n5 -->
<g id="edge4" class="edge">
<title>n3&#45;&gt;n5</title>
<path fill="none" stroke="black" stroke-width="1.2" d="M49.04,-31.69C69.94,-34.78 114.28,-41.34 137.56,-44.78"/>
</g>
<!-- n4&#45;&gt;n5 -->
<g id="edge3" class="edge">
<title>n4&#45;&gt;n5</title>
<path fill="none" stroke="black" stroke-width="1.2" d="M113.32,-58.71C120.81,-56.42 130.02,-53.6 137.52,-51.3"/>
</g>
<!-- n6 -->
<g id="node6" class="node">
<title>n6</title>
<polygon fill="white" stroke="black" stroke-width="1.5" points="191.68,-47 224.08,-32.6 224.08,-61.4 191.68,-47"/>
<text xml:space="preserve" text-anchor="middle" x="213.28" y="-41.98" font-family="Helvetica,sans-Serif" font-size="12.00">F</text>
</g>
<!-- n5&#45;&gt;n6 -->
<g id="edge5" class="edge">
<title>n5&#45;&gt;n6</title>
<path fill="none" stroke="black" stroke-width="1.2" d="M167.48,-47C174.26,-47 182.58,-47 190.2,-47"/>
</g>
</g>
</svg>
