<?xml version="1.0" encoding="UTF-8" standalone="no"?>
<!DOCTYPE svg PUBLIC "-//W3C//DTD SVG 1.1//EN"
 "http://www.w3.org/Graphics/SVG/1.1/DTD/svg11.dtd">
<!-- Generated by graphviz version 14.0.1 (20251006.0113)
 -->
<!-- Title: circuit_1 Pages: 1 -->
<svg width="205pt" height="101pt"
 viewBox="0.00 0.00 205.00 101.00" xmlns="http://www.w3.org/2000/svg" xmlns:xlink="http://www.w3.org/1999/xlink">
<g id="graph0" class="graph" transform="scale(1 1) rotate(0) translate(4 97)">
<title>circuit_1</title>
<polygon fill="white" stroke="none" points="-4,4 -4,-97 200.64,-97 200.64,4 -4,4"/>
<g id="clust1" class="cluster">
<title>cluster_level_0</title>
</g>
<g id="clust2" class="cluster">
<title>cluster_level_1</title>
</g>
<g id="clust3" class="cluster">
<title>cluster_level_2</title>
</g>
<!-- n1 -->
<g id="node1" class="node">
<title>n1</title>
<polygon fill="white" stroke="black" stroke-width="1.5" points="16,-30 48.4,-15.6 48.4,-44.4 16,-30"/>
<text xml:space="preserve" text-anchor="middle" x="37.6" y="-24.98" font-family="Helvetica,sans-Serif" font-size="12.00">A</text>
</g>
<!-- n3 -->
<g id="node3" class="node">
<title>n3</title>
<polygon fill="none" stroke="none" stroke-width="0" points="113.44,-58.6 83.2,-58.6 83.2,-33.4 113.44,-33.4 113.44,-58.6"/>
<image xlink:href="/Users/madhusudhan/Desktop/Static-SignOff-Simulator/out/AND3.png" width="30.24px" height="25.2px" preserveAspectRatio="xMinYMin meet" x="83.2" y="-58.6"/>
<text xml:space="preserve" text-anchor="middle" x="98.32" y="-42.12" font-family="Helvetica,sans-Serif" font-size="10.00">C</text>
</g>
<!-- n1&#45;&gt;n3 -->
<g id="edge1" class="edge">
<title>n1&#45;&gt;n3</title>
<path fill="none" stroke="black" stroke-width="1.2" d="M49.1,-32.86C58.73,-35.49 73.06,-39.39 83.6,-42.26"/>
</g>
<!-- n2 -->
<g id="node2" class="node">
<title>n2</title>
<polygon fill="white" stroke="black" stroke-width="1.5" points="16,-63 48.4,-48.6 48.4,-77.4 16,-63"/>
<text xml:space="preserve" text-anchor="middle" x="37.6" y="-57.98" font-family="Helvetica,sans-Serif" font-size="12.00">B</text>
</g>
<!-- n2&#45;&gt;n3 -->
<g id="edge2" class="edge">
<title>n2&#45;&gt;n3</title>
<path fill="none" stroke="black" stroke-width="1.2" d="M49.1,-59.96C58.73,-57.17 73.06,-53.02 83.6,-49.97"/>
</g>
<!-- n4 -->
<g id="node4" class="node">
<title>n4</title>
<polygon fill="white" stroke="black" stroke-width="1.5" points="137.44,-46 169.84,-31.6 169.84,-60.4 137.44,-46"/>
<text xml:space="preserve" text-anchor="middle" x="159.04" y="-40.98" font-family="Helvetica,sans-Serif" font-size="12.00">D</text>
</g>
<!-- n3&#45;&gt;n4 -->
<g id="edge3" class="edge">
<title>n3&#45;&gt;n4</title>
<path fill="none" stroke="black" stroke-width="1.2" d="M113.24,-46C120.02,-46 128.34,-46 135.96,-46"/>
</g>
</g>
</svg>
